<?xml version="1.0" encoding="UTF-8"?>
<!DOCTYPE svg PUBLIC "-//W3C//DTD SVG 1.1//EN" "http://www.w3.org/Graphics/SVG/1.1/DTD/svg11.dtd">
<!-- Creator: CorelDRAW -->
<svg xmlns="http://www.w3.org/2000/svg" xml:space="preserve" width="873px" height="773px" style="shape-rendering:geometricPrecision; text-rendering:geometricPrecision; image-rendering:optimizeQuality; fill-rule:evenodd; clip-rule:evenodd"
viewBox="0 0 371.203 328.706"
 xmlns:xlink="http://www.w3.org/1999/xlink">
 <defs>
  <style type="text/css">
   <![CDATA[
    .fil0 {fill:#1F1A17}
   ]]>
  </style>
 </defs>
 <g id="Слой_x0020_1">
  <metadata id="CorelCorpID_0Corel-Layer"/>
  <path class="fil0" d="M144.12 191.64l-26.684 15.747 25.5605 -61.8606 42.6139 -24.6295 33.4466 81.2434 -17.5076 -2.69066 -31.8036 7.93732 -25.6258 -15.747zm73.198 -72.4589l36.4493 88.2059 -32.3156 -4.86027 -17.7011 -75.5551 13.5674 -7.79061zm-31.7181 -76.769l25.553 61.8425 -11.2023 6.49075 -14.3241 -8.26694 -0.00552703 -0.0105516 -0.0035172 0.0035172 -0.00703441 -0.0035172 -0.00703441 0.0105516 -32.61 18.8492 32.6065 -78.9155zm-0.017586 -42.4119l-92.2532 223.34 184.54 0 -92.2864 -223.34z"/>
  <path class="fil0" d="M25.8339 281.797l-5.77475 -14.7687 -5.95513 14.7687 11.7299 0zm2.49571 6.49477l-16.7801 0 -3.03987 7.12937c-0.339159,0.760218 -0.609481,1.2069 -0.813479,1.33453 -0.197466,0.133151 -0.709973,0.198471 -1.53049,0.198471l-4.06086 0c-0.723539,0 -1.20489,-0.0497433 -1.44356,-0.148727 -0.443168,-0.201988 -0.661234,-0.544162 -0.661234,-1.02451 0,-0.23917 0.138176,-0.700426 0.422567,-1.38276l16.0565 -37.8049c0.0829055,-0.200481 0.152245,-0.370814 0.211032,-0.512507 0.180382,-0.480349 0.38438,-0.77077 0.616515,-0.886335 0.232135,-0.110038 0.737608,-0.166313 1.51993,-0.166313l2.6173 0c0.841114,0 1.36015,0.0723539 1.56114,0.21254 0.200983,0.141693 0.460754,0.600939 0.782326,1.38427l15.6068 37.7733c0.283889,0.682337 0.422567,1.14359 0.422567,1.38276 0,0.443168 -0.155762,0.748159 -0.464271,0.916483 -0.311021,0.169831 -0.858198,0.256756 -1.63751,0.256756l-4.1508 0c-0.844631,0 -1.3707,-0.0688367 -1.58224,-0.211032 -0.211032,-0.139683 -0.463768,-0.602447 -0.76474,-1.38226l-2.88762 -7.06908z"/>
  <path class="fil0" d="M61.3611 258.038l0 36.7804c0,0.941103 -0.121595,1.5335 -0.360262,1.77619 -0.242185,0.237662 -0.82403,0.35976 -1.74504,0.35976l-3.75939 0c-0.942108,0 -1.534,-0.122097 -1.77619,-0.35976 -0.238667,-0.242687 -0.360262,-0.834582 -0.360262,-1.77619l0 -36.7804c0,-0.943113 0.121595,-1.53501 0.360262,-1.77619 0.242185,-0.23917 0.83408,-0.356242 1.77619,-0.356242l3.75989 0c0.920502,0 1.50235,0.117073 1.74453,0.356242 0.238667,0.24118 0.360262,0.833075 0.360262,1.77619z"/>
  <path class="fil0" d="M100.68 261.374l-1.53501 2.01536c-0.581343,0.783331 -1.09385,1.17374 -1.5335,1.17374 -0.221584,0 -0.41101,-0.0482359 -0.570792,-0.14923 -0.159279,-0.0989841 -0.602447,-0.458744 -1.32197,-1.0828 -0.464773,-0.35976 -1.15415,-0.682337 -2.07766,-0.962709 -0.921507,-0.279869 -1.77619,-0.421562 -2.556,-0.421562 -1.76564,-0.000502458 -3.19764,0.501453 -4.29852,1.50486 -0.983812,0.882316 -1.47522,1.90532 -1.47522,3.06801 0,1.12199 0.436133,2.03847 1.3089,2.75297 0.868247,0.708968 2.50978,1.50486 4.91504,2.3912 2.28869,0.820513 3.98851,1.51742 5.11401,2.08821 1.12199,0.570289 2.15705,1.24609 3.09464,2.02742 2.42687,2.04751 3.6393,4.92459 3.6393,8.63272 0,4.43117 -1.5546,7.90014 -4.65678,10.4064 -2.61077,2.0862 -5.8265,3.1288 -9.65523,3.1288 -3.0881,0 -5.88579,-0.751677 -8.39205,-2.25654 -1.34307,-0.79941 -2.56203,-1.7586 -3.65236,-2.87004 -1.09385,-1.11495 -1.64103,-1.95305 -1.64103,-2.51329 0,-0.35976 0.332124,-0.863222 0.993359,-1.50285l2.04299 -1.98722c0.664751,-0.640131 1.15264,-0.959192 1.47471,-0.959192 0.401464,0 0.771775,0.196963 1.11445,0.599432 0.921005,1.14108 1.5129,1.83447 1.77267,2.07364 0.259771,0.242687 0.692387,0.53361 1.29483,0.872266 1.50235,0.82403 3.08911,1.23554 4.74973,1.23554 2.06711,0 3.68,-0.664751 4.84068,-1.98722 0.985822,-1.10088 1.47873,-2.36457 1.47873,-3.78803 0,-1.70534 -0.751677,-3.0876 -2.25855,-4.14929 -0.719519,-0.519541 -2.6163,-1.34357 -5.6843,-2.46908 -3.12629,-1.11897 -5.43207,-2.31331 -6.91733,-3.5775 -2.146,-1.80232 -3.21623,-4.29802 -3.21623,-7.48712 0,-4.33018 1.80382,-7.64138 5.41147,-9.92605 2.1671,-1.36317 4.64221,-2.0455 7.42884,-2.0455 1.96762,-0.000502458 3.97544,0.349208 6.032,1.03858 2.05254,0.692889 3.7202,1.58827 5.00548,2.69217 0.342174,0.281879 0.512507,0.620535 0.512507,1.023 0,0.279869 -0.262283,0.749667 -0.781824,1.4109z"/>
  <path class="fil0" d="M125.689 262.851l0 9.11056 12.0303 0c0.941606,0 1.5335,0.1226 1.77267,0.363779 0.243189,0.23917 0.363277,0.831065 0.363277,1.77267l0 2.67609c0,0.945123 -0.12059,1.5335 -0.363277,1.77619 -0.23917,0.23917 -0.831065,0.356242 -1.77267,0.356242l-12.0303 0 0 11.0998 12.6333 0c0.92,0 1.49933,0.12059 1.74403,0.35976 0.23917,0.243189 0.356242,0.835085 0.356242,1.77619l0 2.67659c0,0.941103 -0.117073,1.5335 -0.356242,1.77619 -0.244697,0.237662 -0.82403,0.35976 -1.74403,0.35976l-18.4985 0c-0.941103,0 -1.5335,-0.122097 -1.77267,-0.35976 -0.24118,-0.242687 -0.363277,-0.834582 -0.363277,-1.77619l0 -36.7804c0,-0.943113 0.122097,-1.53501 0.363277,-1.77619 0.23917,-0.23917 0.831567,-0.356242 1.77267,-0.356242l18.4985 0c0.900404,0 1.48175,0.127624 1.74403,0.38639 0.23917,0.242687 0.356242,0.82403 0.356242,1.74604l0 2.67458c0,0.94663 -0.117073,1.53501 -0.356242,1.77619 -0.244697,0.23917 -0.82403,0.361769 -1.74403,0.361769l-12.6333 0z"/>
  <path class="fil0" d="M186.348 283.541l0 -25.5032c0,-0.943113 0.120087,-1.53501 0.363277,-1.77619 0.23917,-0.23917 0.833075,-0.356242 1.77569,-0.356242l3.72824 0c0.941103,0 1.533,0.117073 1.77217,0.356242 0.243189,0.24118 0.363277,0.833075 0.363277,1.77619l0.000502458 37.6205c0,0.925527 -0.121092,1.50687 -0.363779,1.74604 -0.258766,0.24118 -0.850661,0.363277 -1.77267,0.363277l-1.95506 0c-0.762228,0 -1.21946,-0.035172 -1.38226,-0.108028 -0.157772,-0.0723539 -0.494921,-0.387897 -0.992856,-0.948138l-24.0923 -27.5156 0 25.6223c0,0.941103 -0.12059,1.5335 -0.360262,1.77619 -0.242687,0.237662 -0.82403,0.35976 -1.74403,0.35976l-3.7614 0c-0.941103,0 -1.5335,-0.122097 -1.77267,-0.35976 -0.240677,-0.242687 -0.363277,-0.834582 -0.363277,-1.77619l0 -37.7431c0,-0.943113 0.122097,-1.53501 0.363277,-1.77267 0.239672,-0.242687 0.831567,-0.363277 1.77267,-0.363277l1.98873 0c0.757204,0 1.21796,0.0371819 1.36668,0.106521 0.14923,0.0688367 0.475325,0.395434 0.976778,0.976778l24.0893 27.5186z"/>
  <path class="fil0" d="M217.855 290.456l3.42827 0c2.50626,0 4.37791,-0.35976 5.622,-1.08129 1.60636,-0.941103 2.40577,-2.47762 2.40577,-4.5995 0,-2.00481 -0.788858,-3.52223 -2.37562,-4.54322 -0.719519,-0.43965 -1.50285,-0.740623 -2.34296,-0.903921 -0.845636,-0.157772 -2.08821,-0.237662 -3.72974,-0.237662l-3.00771 0 0 11.3656zm0 -17.4418l2.28467 0c2.1254,0 3.68,-0.43965 4.66331,-1.32247 1.0426,-0.962206 1.56164,-2.29523 1.56164,-4.00207 0.000502458,-1.74102 -0.515522,-3.06147 -1.54707,-3.95283 -1.03506,-0.889852 -2.56304,-1.33654 -4.58744,-1.33654l-2.37512 0 0 10.6139zm11.4274 2.01536c2.38617,0.523058 4.16186,1.37372 5.32505,2.55449 1.96411,1.9832 2.94239,4.57287 2.94239,7.76197 0,3.44736 -1.21092,6.25509 -3.63377,8.41968 -2.36808,2.1254 -5.77876,3.1886 -10.2275,3.1886l-11.6992 0c-0.941103,0 -1.533,-0.122097 -1.77418,-0.35976 -0.23917,-0.242687 -0.361769,-0.834582 -0.361769,-1.77619l0 -36.7804c0,-0.943113 0.1226,-1.53501 0.361769,-1.77619 0.24118,-0.23917 0.833075,-0.356242 1.77418,-0.356242l8.02978 0c4.65326,0 8.01018,0.819006 10.0733,2.46405 1.12601,0.900404 2.01938,2.10932 2.68011,3.62121 0.661234,1.51692 0.990846,3.11624 0.990846,4.79847 0.000502458,2.32738 -0.522556,4.2523 -1.56164,5.77475 -0.565265,0.82403 -1.53652,1.64505 -2.91928,2.46556z"/>
  <path class="fil0" d="M258.797 262.851l0 9.11056 12.0268 0c0.941606,0 1.5335,0.1226 1.77619,0.363779 0.239672,0.23917 0.35976,0.831065 0.35976,1.77267l0 2.67609c0,0.945123 -0.12059,1.5335 -0.35976,1.77619 -0.242687,0.23917 -0.835085,0.356242 -1.77619,0.356242l-12.0268 0 0 11.0998 12.6298 0c0.92,0 1.50134,0.12059 1.74403,0.35976 0.23917,0.243189 0.35976,0.835085 0.35976,1.77619l0 2.67659c0,0.941103 -0.12059,1.5335 -0.35976,1.77619 -0.242687,0.237662 -0.82403,0.35976 -1.74403,0.35976l-18.495 0c-0.945123,0 -1.5335,-0.122097 -1.77619,-0.35976 -0.23917,-0.242687 -0.35976,-0.834582 -0.35976,-1.77619l0 -36.7804c0,-0.943113 0.12059,-1.53501 0.35976,-1.77619 0.243189,-0.23917 0.831065,-0.356242 1.77619,-0.356242l18.495 0c0.900404,0 1.48175,0.127624 1.74403,0.38639 0.23917,0.242687 0.35976,0.82403 0.35976,1.74604l0 2.67458c0,0.94663 -0.12059,1.53501 -0.35976,1.77619 -0.242687,0.23917 -0.82403,0.361769 -1.74403,0.361769l-12.6298 0z"/>
  <path class="fil0" d="M298.129 274.791l2.31683 0c2.40526,0 4.23974,-0.443168 5.50392,-1.32247 0.721529,-0.481857 1.29182,-1.16972 1.71388,-2.06309 0.422064,-0.889852 0.631087,-1.84904 0.631087,-2.87004 0,-2.00481 -0.65219,-3.52876 -1.95356,-4.57488 -1.30438,-1.03707 -3.2293,-1.55963 -5.77475,-1.55963l-2.43742 0 0 12.3901zm9.08443 4.84269l10.8888 14.613c0.519541,0.682337 0.778307,1.18379 0.778307,1.50285 0,0.443168 -0.159782,0.755194 -0.480349,0.934069 -0.319061,0.180885 -0.872266,0.271327 -1.65208,0.271327l-4.96478 0c-0.802927,0 -1.2873,-0.0462261 -1.46064,-0.134659 -0.170333,-0.0904424 -0.473315,-0.467788 -0.914975,-1.12902l-10.2577 -15.2476 -1.02099 0 0 14.3753c0,0.941103 -0.12059,1.5335 -0.35976,1.77619 -0.23917,0.237662 -0.820513,0.35976 -1.74403,0.35976l-3.75989 0c-0.94261,0 -1.53149,-0.122097 -1.77619,-0.35976 -0.23917,-0.242687 -0.35775,-0.834582 -0.35775,-1.77619l0 -36.7804c0,-0.943113 0.11858,-1.53501 0.35775,-1.77619 0.244697,-0.23917 0.833075,-0.356242 1.77619,-0.356242l9.7723 0c4.61206,0 8.10213,0.967733 10.4702,2.91425 1.26217,1.02099 2.25302,2.36105 2.97656,4.01665 0.719519,1.65007 1.08079,3.39259 1.08079,5.21651 0,1.82392 -0.329612,3.5378 -0.990846,5.14014 -0.660732,1.60786 -1.56516,2.90873 -2.70624,3.91213 -1.46617,1.22298 -3.35189,2.0651 -5.65466,2.52786z"/>
  <path class="fil0" d="M362.06 281.888l-7.52129 0c-0.92,0 -1.51189,-0.131141 -1.77267,-0.391917 -0.240677,-0.242687 -0.35976,-0.82403 -0.35976,-1.74403l0 -2.68011c0,-0.937586 0.119082,-1.52948 0.35976,-1.76915 0.239672,-0.242687 0.831567,-0.363277 1.77267,-0.363277l14.4999 0c0.861212,0 1.39131,0.0798908 1.59329,0.239672 0.379355,0.302982 0.570792,0.912463 0.570792,1.83447 0,3.74884 -0.720022,7.11681 -2.16459,10.1054 -1.56465,3.26849 -3.82169,5.85464 -6.7676,7.76197 -3.10871,2.00481 -6.80629,3.00419 -11.0998,3.00419 -7.01381,0 -12.5976,-2.4741 -16.7489,-7.42884 -3.22729,-3.86742 -4.84419,-8.48852 -4.84419,-13.8628 0,-6.93442 2.47963,-12.4805 7.43034,-16.6303 3.99203,-3.32727 8.77944,-4.99342 14.3738,-4.99342 4.99342,0 9.33416,1.43401 13.0247,4.30053 1.10088,0.861212 2.06008,1.77619 2.87004,2.73839 0.813479,0.962709 1.21745,1.67519 1.21745,2.13595 0.000502458,0.319061 -0.0778809,0.570792 -0.23716,0.751677 -0.163299,0.178875 -0.555216,0.432616 -1.17374,0.751677l-3.31069 1.80232c-0.698416,0.381365 -1.16319,0.570792 -1.38126,0.570792 -0.262283,0 -0.471305,-0.0778809 -0.632594,-0.23716 -0.159782,-0.163299 -0.620535,-0.714495 -1.38276,-1.6556 -0.840109,-1.10088 -2.13243,-2.01938 -3.86591,-2.75297 -1.73147,-0.734091 -3.46193,-1.09737 -5.18637,-1.09737 -3.95082,0 -7.2178,1.41291 -9.80395,4.24175 -2.46908,2.66604 -3.7011,6.02346 -3.7011,10.0738 0,4.37289 1.49582,7.89813 4.48242,10.5873 2.50676,2.26357 5.50241,3.39611 8.99047,3.39611 4.00961,0 7.07109,-1.46064 9.17488,-4.38846 0.861715,-1.18429 1.39131,-2.61831 1.5938,-4.30053z"/>
  <path class="fil0" d="M94.0113 316.135l-2.53088 0c-0.336647,0 -0.549689,-0.0442163 -0.636614,-0.129132 -0.0849153,-0.0869252 -0.127624,-0.299465 -0.127624,-0.636614l0 -0.960699c0,-0.335139 0.0427089,-0.545669 0.127624,-0.634604 0.0869252,-0.0849153 0.299465,-0.129132 0.636614,-0.129132l7.93933 0c0.329612,0 0.540644,0.0477335 0.634604,0.141693 0.0869252,0.0869252 0.129132,0.29444 0.129132,0.622043l0 0.960699c0,0.337149 -0.0427089,0.549689 -0.129132,0.636614 -0.0854178,0.0849153 -0.297957,0.129132 -0.634604,0.129132l-2.54394 0 0 11.449c0,0.336647 -0.0422064,0.551196 -0.127624,0.634604 -0.0864227,0.088935 -0.297455,0.129634 -0.636111,0.129634l-1.33503 0c-0.338154,0 -0.549186,-0.0406991 -0.636111,-0.129634 -0.0869252,-0.083408 -0.129634,-0.297957 -0.129634,-0.634604l0 -11.449z"/>
  <path class="fil0" d="M111.108 322.919l-2.06862 -5.28736 -2.13394 5.28736 4.20256 0zm0.89337 2.3309l-6.00889 0 -1.09033 2.54897c-0.12059,0.272834 -0.218067,0.434123 -0.290923,0.482359 -0.0708465,0.0457236 -0.253239,0.0673293 -0.547679,0.0673293l-1.45512 0c-0.256756,0 -0.429099,-0.0160786 -0.517531,-0.0517531 -0.155762,-0.0723539 -0.234145,-0.194954 -0.234145,-0.368301 0,-0.083408 0.0497433,-0.250224 0.14923,-0.494921l5.75163 -13.5402c0.0286401,-0.0728564 0.0552703,-0.133151 0.0763736,-0.182895 0.0653195,-0.171841 0.136668,-0.276352 0.221584,-0.317051 0.0813981,-0.0391917 0.264293,-0.0602949 0.542152,-0.0602949l0.939596 0c0.301475,0 0.487384,0.0266303 0.55823,0.0763736 0.071349,0.0492408 0.165309,0.216057 0.280371,0.494418l5.59085 13.5297c0.100994,0.244697 0.150235,0.411513 0.150235,0.494921 0,0.161289 -0.0567777,0.269317 -0.166313,0.33112 -0.113555,0.0587875 -0.308509,0.088935 -0.58888,0.088935l-1.48325 0c-0.302982,0 -0.490901,-0.0231131 -0.565767,-0.0728564 -0.0758711,-0.0512507 -0.168323,-0.216057 -0.276352,-0.496428l-1.03506 -2.52937z"/>
  <path class="fil0" d="M123.072 314.409l0 13.1754c0,0.336647 -0.0422064,0.551196 -0.129132,0.634604 -0.0869252,0.088935 -0.295948,0.129634 -0.624052,0.129634l-1.34709 0c-0.338656,0 -0.549689,-0.0406991 -0.636614,-0.129634 -0.0849153,-0.083408 -0.127624,-0.297957 -0.127624,-0.634604l0.000502458 -13.1754c0,-0.335139 0.0422064,-0.545669 0.127122,-0.634604 0.0869252,-0.0849153 0.297957,-0.129132 0.636614,-0.129132l1.34709 0c0.328105,0 0.537127,0.0442163 0.624052,0.129132 0.0869252,0.088935 0.129132,0.299967 0.129132,0.634604z"/>
  <path class="fil0" d="M131.04 325.86l3.76843 0c0.338656,0 0.551196,0.0457236 0.638121,0.131141 0.0849153,0.0869252 0.127624,0.297455 0.127624,0.636111l0 0.957182c0,0.336647 -0.0427089,0.551196 -0.127624,0.634604 -0.0869252,0.088935 -0.299465,0.129634 -0.638121,0.129634l-5.86921 0c-0.336647,0 -0.549186,-0.0406991 -0.632594,-0.129634 -0.0884325,-0.083408 -0.133151,-0.297957 -0.133151,-0.634604l0 -13.1754c0,-0.335139 0.0442163,-0.545669 0.133151,-0.634604 0.083408,-0.0849153 0.295948,-0.129132 0.632594,-0.129132l1.34709 0c0.328105,0 0.537127,0.0442163 0.624052,0.129132 0.0869252,0.088935 0.129634,0.299967 0.129634,0.634604l0 11.451z"/>
  <path class="fil0" d="M146.369 315.93c-1.36668,0 -2.51882,0.494418 -3.46696,1.48727 -0.962709,0.997881 -1.44507,2.21232 -1.44507,3.6388 0.000502458,0.62757 0.129634,1.25162 0.38639,1.8807 0.260775,0.62757 0.611993,1.17726 1.05868,1.64505 0.948138,0.989339 2.09826,1.48526 3.4544,1.48526 1.36668,0 2.52585,-0.495926 3.48153,-1.48526 0.955172,-1.0014 1.43401,-2.19624 1.43401,-3.59106 0,-0.673796 -0.127624,-1.32398 -0.379355,-1.95155 -0.251731,-0.631087 -0.602949,-1.16972 -1.05466,-1.62193 -0.985822,-0.992856 -2.13946,-1.48727 -3.46897,-1.48727zm0.0231131 -2.6178c2.3098,0 4.23471,0.822021 5.77324,2.46707 1.3702,1.46617 2.05606,3.20467 2.05606,5.22556 0,1.38427 -0.349208,2.66956 -1.04561,3.85536 -0.710978,1.2265 -1.68926,2.18016 -2.93938,2.86451 -1.17826,0.638121 -2.49721,0.958689 -3.95434,0.958689 -1.32046,0 -2.55801,-0.304489 -3.71718,-0.914473 -1.35613,-0.712485 -2.39823,-1.71941 -3.12127,-3.0258 -0.634604,-1.13455 -0.94864,-2.41783 -0.94864,-3.84631 0.000502458,-2.19273 0.845636,-4.05232 2.54193,-5.58029 0.847646,-0.767253 1.81689,-1.31493 2.90873,-1.63952 0.82604,-0.24118 1.64153,-0.364784 2.44647,-0.364784z"/>
  <path class="fil0" d="M161.383 320.411l0.82805 0c0.861212,0 1.51893,-0.157772 1.97064,-0.473315 0.259268,-0.173348 0.464773,-0.418045 0.613501,-0.737105 0.150737,-0.319061 0.227111,-0.661234 0.227111,-1.03004 0,-0.718012 -0.232135,-1.26368 -0.700426,-1.636 -0.467788,-0.373828 -1.15565,-0.561748 -2.06862,-0.561748l-0.870257 0 0 4.43821zm3.25291 1.73549l3.89957 5.2341c0.184402,0.243189 0.279869,0.422064 0.279869,0.539137 0,0.155762 -0.0582851,0.269317 -0.17385,0.333129 -0.115063,0.0638121 -0.312026,0.0959694 -0.593402,0.0959694l-1.77619 0c-0.288913,0 -0.460754,-0.0145713 -0.521049,-0.0482359 -0.0638121,-0.0301475 -0.172343,-0.164806 -0.330115,-0.401966l-3.67246 -5.46322 -0.365287 0 0 5.14919c0,0.336647 -0.0442163,0.551196 -0.131141,0.634604 -0.0869252,0.088935 -0.295948,0.129634 -0.624052,0.129634l-1.34709 0c-0.336647,0 -0.547679,-0.0406991 -0.634604,-0.129634 -0.0864227,-0.083408 -0.129132,-0.297957 -0.129132,-0.634604l0 -13.1754c0,-0.335139 0.0422064,-0.545669 0.129132,-0.634604 0.0869252,-0.0849153 0.297957,-0.129132 0.634604,-0.129132l3.50112 0c1.65208,0 2.89968,0.350715 3.74884,1.04762 0.452212,0.366794 0.807952,0.843626 1.06722,1.43753 0.258766,0.591895 0.38639,1.21394 0.38639,1.86814 0,0.65219 -0.117073,1.2672 -0.356745,1.84151 -0.235653,0.574309 -0.55823,1.0426 -0.969241,1.40035 -0.523058,0.438143 -1.19836,0.741125 -2.02239,0.905931z"/>
  <path class="fil0" d="M176.172 316.135l0 3.26346 4.31058 0c0.338656,0 0.549689,0.0427089 0.634604,0.127624 0.0869252,0.0884325 0.131141,0.297957 0.131141,0.638121l0 0.957182c0,0.336647 -0.0442163,0.549689 -0.131141,0.634604 -0.0849153,0.0884325 -0.295948,0.129132 -0.634604,0.129132l-4.31058 0 0 3.97444 4.52513 0c0.33112,0 0.538635,0.0457236 0.62556,0.131141 0.0869252,0.0869252 0.129634,0.297455 0.129634,0.636111l0 0.957182c0,0.336647 -0.0427089,0.551196 -0.129634,0.634604 -0.0869252,0.088935 -0.29444,0.129634 -0.62556,0.129634l-6.6244 0c-0.338154,0 -0.551196,-0.0406991 -0.636111,-0.129634 -0.0849153,-0.083408 -0.129634,-0.297957 -0.129634,-0.634604l0 -13.1754c0,-0.335139 0.0447187,-0.545669 0.129634,-0.634604 0.0854178,-0.0849153 0.297957,-0.129132 0.636111,-0.129132l6.6244 0c0.324588,0 0.5316,0.0477335 0.62556,0.141693 0.0869252,0.0869252 0.129634,0.29444 0.129634,0.622043l0 0.960699c0,0.337149 -0.0427089,0.549689 -0.129634,0.636614 -0.0869252,0.0849153 -0.29444,0.129132 -0.62556,0.129132l-4.52513 0z"/>
  <path class="fil0" d="M189.503 325.86l0.764238 0c0.932059,0 1.70836,-0.088935 2.3304,-0.273337 0.622545,-0.182392 1.16118,-0.47834 1.62043,-0.887843 0.496428,-0.445177 0.884325,-0.994364 1.16419,-1.65359 0.282381,-0.657717 0.420557,-1.34206 0.420557,-2.05455 0,-0.980295 -0.258766,-1.88271 -0.776799,-2.70121 -0.47834,-0.760721 -1.09184,-1.30991 -1.83447,-1.64856 -0.74414,-0.337149 -1.72092,-0.505472 -2.92481,-0.505472l-0.763736 0 0 9.72456zm-2.86602 1.72443l0 -13.1754c0,-0.335139 0.0406991,-0.545669 0.129132,-0.634604 0.0849153,-0.0849153 0.295948,-0.129132 0.632594,-0.129132l3.43882 0c2.147,0 3.91013,0.565265 5.28786,1.69278 0.89136,0.732081 1.57018,1.64153 2.03847,2.72633 0.391414,0.923015 0.591895,1.89276 0.591895,2.90672 0,1.52998 -0.430606,2.92129 -1.29383,4.17794 -0.882818,1.29383 -2.03144,2.19976 -3.44786,2.71578 -0.889852,0.324085 -1.95707,0.483867 -3.19764,0.483867l-3.41721 0c-0.337149,0 -0.548181,-0.0406991 -0.633097,-0.129634 -0.0884325,-0.083408 -0.129634,-0.297957 -0.129132,-0.634604z"/>
  <path class="fil0" d="M216.558 314.409l0 9.15729c0,1.13606 -0.131644,2.03646 -0.39041,2.70473 -0.379355,0.969743 -1.01547,1.65007 -1.90733,2.0455 -0.559738,0.251731 -1.15013,0.379355 -1.77619,0.379355 -0.5316,0 -1.06873,-0.0919497 -1.60937,-0.269317 -0.542152,-0.180885 -0.981802,-0.41503 -1.32046,-0.701933 -0.209022,-0.171841 -0.312026,-0.333129 -0.312026,-0.483867 0,-0.108028 0.0994866,-0.281879 0.302982,-0.516024l0.708968 -0.86473c0.223594,-0.264293 0.405986,-0.397444 0.549689,-0.397444 0.108531,0 0.220076,0.0497433 0.333129,0.152747 0.344183,0.286903 0.701933,0.430606 1.06722,0.430606 0.640131,0 1.07074,-0.295948 1.29232,-0.884325 0.129634,-0.344183 0.192944,-1.02652 0.192944,-2.0455l0.000502458 -8.70709c0,-0.327602 0.0442163,-0.538635 0.130639,-0.634604 0.0909448,-0.0849153 0.301475,-0.129132 0.624052,-0.129132l1.35814 0c0.329612,0 0.540142,0.0442163 0.62355,0.129132 0.0854178,0.088935 0.131141,0.299967 0.131644,0.634604z"/>
  <path class="fil0" d="M225.083 316.135l0 3.26346 4.31109 0c0.334637,0 0.547679,0.0427089 0.634102,0.127624 0.0854178,0.0884325 0.129634,0.297957 0.129634,0.638121l0 0.957182c0,0.336647 -0.0442163,0.549689 -0.129634,0.634604 -0.0864227,0.0884325 -0.299465,0.129132 -0.634604,0.129132l-4.31058 0 0 3.97444 4.52564 0c0.329612,0 0.538635,0.0457236 0.62355,0.131141 0.0854178,0.0869252 0.131141,0.297455 0.131141,0.636111l0 0.957182c0,0.336647 -0.0462261,0.551196 -0.131141,0.634604 -0.0849153,0.088935 -0.29444,0.129634 -0.624052,0.129634l-6.6239 0c-0.340164,0 -0.551196,-0.0406991 -0.636111,-0.129634 -0.0869252,-0.083408 -0.129634,-0.297957 -0.129634,-0.634604l0 -13.1754c0,-0.335139 0.0427089,-0.545669 0.129634,-0.634604 0.0849153,-0.0849153 0.295948,-0.129132 0.636111,-0.129132l6.6244 0c0.322578,0 0.52959,0.0477335 0.62355,0.141693 0.0854178,0.0869252 0.131141,0.29444 0.131141,0.622043l0 0.960699c0,0.337149 -0.0462261,0.549689 -0.131141,0.636614 -0.0849153,0.0849153 -0.29444,0.129132 -0.624052,0.129132l-4.52513 0z"/>
  <path class="fil0" d="M243.407 322.919l-2.06862 -5.28736 -2.13243 5.28736 4.20105 0zm0.89337 2.3309l-6.0109 0 -1.08832 2.54897c-0.12059,0.272834 -0.218067,0.434123 -0.288913,0.482359 -0.0728564,0.0457236 -0.255248,0.0673293 -0.549689,0.0673293l-1.45512 0c-0.256756,0 -0.430606,-0.0160786 -0.517531,-0.0517531 -0.157772,-0.0723539 -0.235653,-0.194954 -0.235653,-0.368301 0,-0.083408 0.0512507,-0.250224 0.148727,-0.494921l5.75364 -13.5402c0.0286401,-0.0728564 0.0532605,-0.133151 0.0743637,-0.182895 0.0658219,-0.171841 0.140186,-0.276352 0.220076,-0.317051 0.083408,-0.0391917 0.2658,-0.0602949 0.545669,-0.0602949l0.936079 0c0.302982,0 0.489394,0.0266303 0.561748,0.0763736 0.071349,0.0492408 0.166816,0.216057 0.278362,0.494418l5.59235 13.5297c0.0994866,0.244697 0.150737,0.411513 0.150737,0.494921 0,0.161289 -0.0567777,0.269317 -0.166816,0.33112 -0.113053,0.0587875 -0.306499,0.088935 -0.586368,0.088935l-1.48727 0c-0.301475,0 -0.490901,-0.0231131 -0.567275,-0.0728564 -0.0743637,-0.0512507 -0.164806,-0.216057 -0.272834,-0.496428l-1.03506 -2.52937z"/>
  <path class="fil0" d="M263.451 323.547l0 -9.13769c0,-0.335139 0.0406991,-0.545669 0.129132,-0.634604 0.0854178,-0.0849153 0.295948,-0.129132 0.634604,-0.129132l1.33503 0c0.338656,0 0.549186,0.0442163 0.636111,0.129132 0.0869252,0.088935 0.129634,0.299967 0.129634,0.634604l0 13.4769c0,0.329612 -0.0427089,0.540644 -0.129634,0.62556 -0.0939596,0.0854178 -0.304992,0.131141 -0.636111,0.131141l-0.698416 0c-0.274844,0 -0.43965,-0.0140688 -0.496428,-0.0406991 -0.0567777,-0.0231131 -0.175358,-0.138176 -0.356242,-0.336647l-8.62921 -9.85922 0 9.17839c0,0.336647 -0.0406991,0.551196 -0.127624,0.634604 -0.0864227,0.088935 -0.293938,0.129634 -0.62556,0.129634l-1.34508 0c-0.338656,0 -0.549689,-0.0406991 -0.636614,-0.129634 -0.0864227,-0.083408 -0.129132,-0.297957 -0.129132,-0.634604l0 -13.5176c0,-0.336647 0.0422064,-0.549186 0.129132,-0.634604 0.0869252,-0.0884325 0.297957,-0.132649 0.636614,-0.132649l0.710475 0c0.273337,0 0.436133,0.0125614 0.489394,0.0391917 0.0552703,0.0261278 0.170333,0.141693 0.350715,0.350715l8.62921 9.85721z"/>
  <path class="fil0" d="M279.515 315.607l-0.547679 0.719519c-0.211032,0.281879 -0.391917,0.422064 -0.551196,0.422064 -0.0778809,0 -0.14722,-0.017586 -0.203998,-0.0547679 -0.0567777,-0.0356745 -0.216057,-0.165309 -0.473315,-0.386892 -0.166313,-0.131141 -0.41302,-0.244194 -0.744642,-0.347198 -0.329612,-0.0974768 -0.634604,-0.148727 -0.914473,-0.148727 -0.634604,0 -1.14661,0.180885 -1.54054,0.538635 -0.352223,0.315543 -0.528083,0.682337 -0.528083,1.09887 0,0.402469 0.157772,0.730573 0.46829,0.985822 0.312026,0.255248 0.900404,0.540644 1.76363,0.856188 0.815489,0.293938 1.42648,0.544162 1.82895,0.748159 0.400961,0.203495 0.77278,0.448192 1.11144,0.726554 0.867242,0.733588 1.30137,1.76363 1.30137,3.09112 0,1.58827 -0.556723,2.82934 -1.67017,3.72773 -0.932059,0.748159 -2.0862,1.12199 -3.45641,1.12199 -1.10742,0 -2.10932,-0.270825 -3.0062,-0.807952 -0.481857,-0.287406 -0.916483,-0.631087 -1.3079,-1.02803 -0.393424,-0.398951 -0.58687,-0.700426 -0.58687,-0.900906 0,-0.129132 0.115063,-0.310016 0.354735,-0.538635l0.732081 -0.712485c0.23716,-0.228618 0.412518,-0.342174 0.528083,-0.342174 0.141693,0 0.274844,0.0708465 0.398449,0.214549 0.330115,0.409503 0.541147,0.659224 0.634604,0.742632 0.0959694,0.0849153 0.250224,0.191436 0.464773,0.313534 0.537127,0.29243 1.1044,0.43965 1.70132,0.43965 0.739618,0 1.31744,-0.235653 1.73398,-0.708968 0.350715,-0.395434 0.528083,-0.849153 0.528083,-1.35965 0,-0.609481 -0.26781,-1.1039 -0.808454,-1.48526 -0.258766,-0.185909 -0.937586,-0.480349 -2.03495,-0.882818 -1.11998,-0.402469 -1.94602,-0.827548 -2.47812,-1.28127 -0.76876,-0.647165 -1.15214,-1.54054 -1.15214,-2.68212 0.000502458,-1.55109 0.647165,-2.73689 1.93949,-3.5574 0.77479,-0.487384 1.66263,-0.730573 2.6585,-0.730573 0.70545,0 1.42547,0.1226 2.16107,0.370814 0.735598,0.249721 1.33302,0.570792 1.79377,0.964216 0.1226,0.102501 0.182392,0.223091 0.182392,0.366794 0.000502458,0.100994 -0.0919497,0.269317 -0.279869,0.50698z"/>
 </g>
</svg>
